<?xml version="1.0" standalone="no"?>
<!DOCTYPE svg PUBLIC "-//W3C//DTD SVG 20010904//EN"
 "http://www.w3.org/TR/2001/REC-SVG-20010904/DTD/svg10.dtd">
<svg version="1.0" xmlns="http://www.w3.org/2000/svg"
 width="1000.000000pt" height="1000.000000pt" viewBox="0 0 1000.000000 1000.000000"
 preserveAspectRatio="xMidYMid meet">

<g transform="translate(0.000000,1000.000000) scale(0.100000,-0.100000)"
fill="#000000" stroke="none">
<path d="M5975 6205 l-969 -986 -51 53 c-345 354 -1879 1908 -1883 1908 -7 0
-458 -452 -715 -716 l-108 -111 721 -733 c751 -762 815 -824 958 -928 163
-117 457 -248 657 -292 562 -125 1159 10 1585 356 40 32 79 64 87 69 33 23
1498 1519 1498 1530 0 6 -182 197 -405 423 l-406 412 -969 -985z"/>
<path d="M4714 4001 c-110 -18 -222 -110 -266 -219 l-23 -57 -3 -736 c-2 -624
-1 -738 11 -747 11 -9 160 -12 583 -10 l569 3 0 755 0 755 -28 57 c-54 109
-147 179 -263 198 -65 11 -516 11 -580 1z"/>
</g>
</svg>
