<svg width="30" height="30" viewBox="0 0 30 30" fill="none" xmlns="http://www.w3.org/2000/svg">
<path d="M20.3304 24.5043L11.6848 15.72C11.4952 15.5283 11.3889 15.2696 11.3889 15C11.3889 14.7304 11.4952 14.4716 11.6848 14.28L20.3286 5.49558C20.5181 5.30273 20.6243 5.04316 20.6243 4.77277C20.6243 4.50238 20.5181 4.24281 20.3286 4.04996C20.236 3.95499 20.1253 3.87952 20.0031 3.82799C19.8809 3.77646 19.7496 3.74991 19.617 3.74991C19.4844 3.74991 19.3531 3.77646 19.2309 3.82799C19.1087 3.87952 18.998 3.95499 18.9054 4.04996L10.2617 12.8325C9.69371 13.4109 9.37549 14.1893 9.37549 15C9.37549 15.8107 9.69371 16.589 10.2617 17.1675L18.9054 25.95C18.9981 26.0452 19.1088 26.1209 19.2312 26.1726C19.3536 26.2243 19.4851 26.251 19.6179 26.251C19.7508 26.251 19.8823 26.2243 20.0047 26.1726C20.1271 26.1209 20.2378 26.0452 20.3304 25.95C20.52 25.7571 20.6262 25.4975 20.6262 25.2271C20.6262 24.9568 20.52 24.6972 20.3304 24.5043Z" fill="#9A9A9A"/>
</svg>
