<svg width="34" height="34" viewBox="0 0 34 34" fill="none" xmlns="http://www.w3.org/2000/svg">
<path d="M3.71875 6.375C3.29606 6.375 2.89068 6.54291 2.5918 6.8418C2.29291 7.14068 2.125 7.54606 2.125 7.96875C2.125 8.39144 2.29291 8.79682 2.5918 9.0957C2.89068 9.39459 3.29606 9.5625 3.71875 9.5625H30.2812C30.7039 9.5625 31.1093 9.39459 31.4082 9.0957C31.7071 8.79682 31.875 8.39144 31.875 7.96875C31.875 7.54606 31.7071 7.14068 31.4082 6.8418C31.1093 6.54291 30.7039 6.375 30.2812 6.375H3.71875ZM3.71875 12.75C3.29606 12.75 2.89068 12.9179 2.5918 13.2168C2.29291 13.5157 2.125 13.9211 2.125 14.3438C2.125 14.7664 2.29291 15.1718 2.5918 15.4707C2.89068 15.7696 3.29606 15.9375 3.71875 15.9375H30.2812C30.7039 15.9375 31.1093 15.7696 31.4082 15.4707C31.7071 15.1718 31.875 14.7664 31.875 14.3438C31.875 13.9211 31.7071 13.5157 31.4082 13.2168C31.1093 12.9179 30.7039 12.75 30.2812 12.75H3.71875ZM2.125 20.7188C2.125 20.2961 2.29291 19.8907 2.5918 19.5918C2.89068 19.2929 3.29606 19.125 3.71875 19.125H30.2812C30.7039 19.125 31.1093 19.2929 31.4082 19.5918C31.7071 19.8907 31.875 20.2961 31.875 20.7188C31.875 21.1414 31.7071 21.5468 31.4082 21.8457C31.1093 22.1446 30.7039 22.3125 30.2812 22.3125H3.71875C3.29606 22.3125 2.89068 22.1446 2.5918 21.8457C2.29291 21.5468 2.125 21.1414 2.125 20.7188ZM3.71875 25.5C3.29606 25.5 2.89068 25.6679 2.5918 25.9668C2.29291 26.2657 2.125 26.6711 2.125 27.0938C2.125 27.5164 2.29291 27.9218 2.5918 28.2207C2.89068 28.5196 3.29606 28.6875 3.71875 28.6875H21.7812C22.2039 28.6875 22.6093 28.5196 22.9082 28.2207C23.2071 27.9218 23.375 27.5164 23.375 27.0938C23.375 26.6711 23.2071 26.2657 22.9082 25.9668C22.6093 25.6679 22.2039 25.5 21.7812 25.5H3.71875Z" fill="#00E2B8" fill-opacity="0.5"/>
</svg>
