<svg width="42" height="42" viewBox="0 0 42 42" fill="none" xmlns="http://www.w3.org/2000/svg">
<path d="M21 29.75C21.4958 29.75 21.9118 29.582 22.2478 29.246C22.5838 28.91 22.7512 28.4947 22.75 28C22.7488 27.5053 22.5808 27.09 22.246 26.754C21.9112 26.418 21.4958 26.25 21 26.25C20.5042 26.25 20.0888 26.418 19.754 26.754C19.4192 27.09 19.2512 27.5053 19.25 28C19.2488 28.4947 19.4168 28.9106 19.754 29.2478C20.0912 29.5849 20.5065 29.7523 21 29.75ZM19.25 22.75H22.75V12.25H19.25V22.75ZM21 38.5C18.5792 38.5 16.3042 38.0403 14.175 37.121C12.0458 36.2017 10.1938 34.9551 8.61875 33.3813C7.04375 31.8074 5.79717 29.9553 4.879 27.825C3.96084 25.6947 3.50117 23.4197 3.5 21C3.49884 18.5803 3.9585 16.3053 4.879 14.175C5.7995 12.0447 7.04609 10.1926 8.61875 8.61875C10.1914 7.04492 12.0435 5.79833 14.175 4.879C16.3065 3.95967 18.5815 3.5 21 3.5C23.4185 3.5 25.6935 3.95967 27.825 4.879C29.9565 5.79833 31.8086 7.04492 33.3813 8.61875C34.9539 10.1926 36.2011 12.0447 37.1228 14.175C38.0444 16.3053 38.5035 18.5803 38.5 21C38.4965 23.4197 38.0368 25.6947 37.121 27.825C36.2052 29.9553 34.9586 31.8074 33.3813 33.3813C31.8039 34.9551 29.9518 36.2023 27.825 37.1227C25.6982 38.0433 23.4232 38.5023 21 38.5ZM21 35C24.9083 35 28.2188 33.6438 30.9312 30.9312C33.6438 28.2188 35 24.9083 35 21C35 17.0917 33.6438 13.7812 30.9312 11.0688C28.2188 8.35625 24.9083 7 21 7C17.0917 7 13.7813 8.35625 11.0688 11.0688C8.35625 13.7812 7 17.0917 7 21C7 24.9083 8.35625 28.2188 11.0688 30.9312C13.7813 33.6438 17.0917 35 21 35Z" fill="white"/>
</svg>
