<svg width="44" height="44" viewBox="0 0 44 44" fill="none" xmlns="http://www.w3.org/2000/svg">
<path d="M25.6667 22V36.4467C25.74 36.9967 25.5567 37.5833 25.135 37.9683C24.9654 38.1383 24.7639 38.2731 24.5421 38.3651C24.3204 38.4571 24.0826 38.5045 23.8425 38.5045C23.6024 38.5045 23.3646 38.4571 23.1429 38.3651C22.9211 38.2731 22.7196 38.1383 22.55 37.9683L18.865 34.2833C18.6652 34.0878 18.5132 33.8487 18.421 33.5848C18.3288 33.3208 18.2988 33.0391 18.3333 32.7617V22H18.2783L7.71833 8.47C7.42061 8.08781 7.28627 7.60331 7.34467 7.12237C7.40307 6.64144 7.64946 6.20317 8.03 5.90333C8.37833 5.64667 8.76333 5.5 9.16666 5.5H34.8333C35.2367 5.5 35.6217 5.64667 35.97 5.90333C36.3505 6.20317 36.5969 6.64144 36.6553 7.12237C36.7137 7.60331 36.5794 8.08781 36.2817 8.47L25.7217 22H25.6667Z" fill="black" fill-opacity="0.6"/>
</svg>
