<svg width="28" height="28" viewBox="0 0 28 28" fill="none" xmlns="http://www.w3.org/2000/svg">
<path d="M13.9999 2.33331C14.9282 2.33331 15.8184 2.70206 16.4748 3.35844C17.1312 4.01482 17.4999 4.90506 17.4999 5.83331V12.8333C17.4999 13.7616 17.1312 14.6518 16.4748 15.3082C15.8184 15.9646 14.9282 16.3333 13.9999 16.3333C13.0717 16.3333 12.1814 15.9646 11.525 15.3082C10.8687 14.6518 10.4999 13.7616 10.4999 12.8333V5.83331C10.4999 4.90506 10.8687 4.01482 11.525 3.35844C12.1814 2.70206 13.0717 2.33331 13.9999 2.33331ZM22.1666 12.8333C22.1666 16.9516 19.1216 20.3466 15.1666 20.9183V24.5H12.8333V20.9183C8.87825 20.3466 5.83325 16.9516 5.83325 12.8333H8.16659C8.16659 14.3804 8.78117 15.8641 9.87513 16.9581C10.9691 18.0521 12.4528 18.6666 13.9999 18.6666C15.547 18.6666 17.0307 18.0521 18.1247 16.9581C19.2187 15.8641 19.8333 14.3804 19.8333 12.8333H22.1666Z" fill="#00E2B8"/>
</svg>
