<svg width="24" height="24" viewBox="0 0 24 24" fill="none" xmlns="http://www.w3.org/2000/svg">
<path fill-rule="evenodd" clip-rule="evenodd" d="M17.47 9.47023C17.6106 9.32978 17.8012 9.25089 18 9.25089C18.1988 9.25089 18.3894 9.32978 18.53 9.47023L20 10.9402L21.47 9.47023C21.6122 9.33775 21.8002 9.26562 21.9945 9.26905C22.1888 9.27248 22.3742 9.35119 22.5116 9.48861C22.649 9.62602 22.7277 9.8114 22.7312 10.0057C22.7346 10.2 22.6625 10.3881 22.53 10.5302L21.061 12.0002L22.531 13.4702C22.6676 13.6117 22.7431 13.8012 22.7413 13.9979C22.7395 14.1945 22.6605 14.3826 22.5214 14.5216C22.3822 14.6606 22.1941 14.7394 21.9975 14.741C21.8008 14.7426 21.6114 14.6669 21.47 14.5302L20 13.0602L18.53 14.5302C18.3878 14.6627 18.1998 14.7348 18.0055 14.7314C17.8112 14.728 17.6258 14.6493 17.4884 14.5118C17.351 14.3744 17.2723 14.1891 17.2688 13.9948C17.2654 13.8004 17.3375 13.6124 17.47 13.4702L18.94 12.0002L17.47 10.5302C17.3295 10.3896 17.2507 10.199 17.2507 10.0002C17.2507 9.80148 17.3295 9.61085 17.47 9.47023ZM13.037 3.39623C14.2 2.62923 15.75 3.46423 15.75 4.85723V19.1432C15.75 20.5372 14.2 21.3712 13.037 20.6042L7.037 16.6492C6.99641 16.6222 6.94879 16.6076 6.9 16.6072H4C3.27065 16.6072 2.57118 16.3175 2.05546 15.8018C1.53973 15.286 1.25 14.5866 1.25 13.8572V10.1432C1.25 9.41388 1.53973 8.71441 2.05546 8.19868C2.57118 7.68296 3.27065 7.39323 4 7.39323H6.9C6.94903 7.39339 6.99701 7.37913 7.038 7.35223L13.037 3.39623Z" fill="white" fill-opacity="0.5"/>
</svg>
