<svg width="35" height="35" viewBox="0 0 35 35" fill="none" xmlns="http://www.w3.org/2000/svg">
<path d="M13.1248 20.7813C12.6144 20.7813 12.1828 20.6048 11.8298 20.2519C11.4769 19.899 11.301 19.4678 11.3019 18.9584C11.3029 18.4489 11.4794 18.0172 11.8313 17.6634C12.1832 17.3095 12.6144 17.1335 13.1248 17.1354C13.6353 17.1374 14.0669 17.3138 14.4198 17.6648C14.7728 18.0158 14.9487 18.447 14.9478 18.9584C14.9468 19.4697 14.7703 19.9014 14.4184 20.2534C14.0664 20.6053 13.6353 20.7813 13.1248 20.7813ZM21.8748 20.7813C21.3644 20.7813 20.9328 20.6048 20.5798 20.2519C20.2269 19.899 20.051 19.4678 20.0519 18.9584C20.0529 18.4489 20.2294 18.0172 20.5813 17.6634C20.9332 17.3095 21.3644 17.1335 21.8748 17.1354C22.3853 17.1374 22.8169 17.3138 23.1698 17.6648C23.5228 18.0158 23.6987 18.447 23.6978 18.9584C23.6968 19.4697 23.5203 19.9014 23.1684 20.2534C22.8164 20.6053 22.3853 20.7813 21.8748 20.7813ZM17.4998 29.1667C20.7568 29.1667 23.5155 28.0365 25.7759 25.7761C28.0363 23.5156 29.1665 20.757 29.1665 17.5C29.1665 16.9167 29.13 16.3518 29.0571 15.8054C28.9842 15.2591 28.8505 14.7302 28.6561 14.2188C28.1457 14.3403 27.6353 14.4317 27.1248 14.4929C26.6144 14.5542 26.0797 14.5843 25.5207 14.5834C23.3089 14.5834 21.2186 14.1094 19.2498 13.1615C17.2811 12.2136 15.604 10.8889 14.2186 9.18753C13.4408 11.0834 12.3291 12.7303 10.8834 14.1284C9.43769 15.5264 7.75428 16.5774 5.83317 17.2813V17.5C5.83317 20.757 6.96338 23.5156 9.2238 25.7761C11.4842 28.0365 14.2429 29.1667 17.4998 29.1667ZM17.4998 32.0834C15.4825 32.0834 13.5866 31.7008 11.8123 30.9357C10.038 30.1705 8.49463 29.1312 7.18213 27.8177C5.86963 26.5043 4.83081 24.9609 4.06567 23.1875C3.30053 21.4142 2.91748 19.5184 2.91651 17.5C2.91553 15.4817 3.29859 13.5859 4.06567 11.8125C4.83276 10.0392 5.87158 8.49579 7.18213 7.18232C8.49269 5.86885 10.0361 4.83003 11.8123 4.06586C13.5886 3.30169 15.4844 2.91864 17.4998 2.91669C19.5153 2.91475 21.4111 3.29781 23.1873 4.06586C24.9636 4.83392 26.507 5.87274 27.8176 7.18232C29.1281 8.4919 30.1674 10.0353 30.9355 11.8125C31.7035 13.5898 32.0861 15.4856 32.0832 17.5C32.0803 19.5145 31.6972 21.4103 30.934 23.1875C30.1708 24.9647 29.132 26.5082 27.8176 27.8177C26.5031 29.1273 24.9597 30.1666 23.1873 30.9357C21.415 31.7047 19.5191 32.0872 17.4998 32.0834Z" fill="white"/>
</svg>
