<svg width="25" height="25" viewBox="0 0 25 25" fill="none" xmlns="http://www.w3.org/2000/svg">
<path d="M22.7042 21.0459L18.0665 16.4062C19.457 14.5942 20.1062 12.3211 19.8824 10.048C19.6586 7.77488 18.5785 5.67203 16.8612 4.16599C15.144 2.65996 12.9182 1.86352 10.6353 1.93823C8.35244 2.01294 6.18347 2.95322 4.56837 4.56831C2.95328 6.1834 2.013 8.35238 1.93829 10.6352C1.86358 12.9181 2.66002 15.1439 4.16605 16.8612C5.67209 18.5784 7.77494 19.6585 10.048 19.8823C12.3211 20.1061 14.5943 19.4569 16.4063 18.0664L21.0479 22.709C21.1569 22.818 21.2863 22.9044 21.4287 22.9634C21.5712 23.0224 21.7238 23.0528 21.878 23.0528C22.0321 23.0528 22.1848 23.0224 22.3272 22.9634C22.4696 22.9044 22.5991 22.818 22.7081 22.709C22.8171 22.6 22.9035 22.4706 22.9625 22.3281C23.0215 22.1857 23.0519 22.0331 23.0519 21.8789C23.0519 21.7247 23.0215 21.5721 22.9625 21.4297C22.9035 21.2872 22.8171 21.1578 22.7081 21.0488L22.7042 21.0459ZM4.29692 10.9375C4.29692 9.6241 4.68639 8.3402 5.41607 7.24815C6.14575 6.15611 7.18288 5.30496 8.39629 4.80235C9.60971 4.29974 10.9449 4.16823 12.2331 4.42446C13.5212 4.68069 14.7045 5.31315 15.6332 6.24186C16.5619 7.17057 17.1943 8.35381 17.4506 9.64197C17.7068 10.9301 17.5753 12.2653 17.0727 13.4787C16.5701 14.6922 15.7189 15.7293 14.6269 16.459C13.5348 17.1886 12.2509 17.5781 10.9376 17.5781C9.1769 17.5763 7.48888 16.8761 6.24392 15.6311C4.99895 14.3862 4.29873 12.6981 4.29692 10.9375Z" fill="#00E2B8"/>
</svg>
