<?xml version="1.0" ?><svg style="enable-background:new 0 0 24 24;" version="1.1" viewBox="0 0 24 24" xml:space="preserve" xmlns="http://www.w3.org/2000/svg" xmlns:xlink="http://www.w3.org/1999/xlink"><style type="text/css">
	.st0{display:none;}
</style><g class="st0" id="grid"/><g id="icon"><path d="M12,0C5.383,0,0,5.383,0,12s5.383,12,12,12s12-5.383,12-12S18.617,0,12,0z M12,23C5.935,23,1,18.065,1,12S5.935,1,12,1   s11,4.935,11,11S18.065,23,12,23z"/><path d="M16.801,8.403l-6.132,6.133L7.753,11.62c-0.195-0.195-0.512-0.195-0.707,0s-0.195,0.512,0,0.707l3.27,3.27   c0.094,0.094,0.221,0.146,0.354,0.146s0.26-0.053,0.354-0.146l6.485-6.486c0.195-0.195,0.195-0.512,0-0.707   S16.997,8.208,16.801,8.403z"/></g></svg>