<svg width="51" height="51" viewBox="0 0 51 51" fill="none" xmlns="http://www.w3.org/2000/svg">
<path d="M8.76562 44.625C7.28621 44.625 5.8674 44.0373 4.82129 42.9912C3.77519 41.9451 3.1875 40.5263 3.1875 39.0469V31.0781C3.1875 30.4441 3.43937 29.836 3.8877 29.3877C4.33603 28.9394 4.94409 28.6875 5.57812 28.6875C6.21216 28.6875 6.82022 28.9394 7.26855 29.3877C7.71688 29.836 7.96875 30.4441 7.96875 31.0781V39.0469C7.96875 39.4867 8.32575 39.8438 8.76562 39.8438H42.2344C42.4457 39.8438 42.6484 39.7598 42.7979 39.6104C42.9473 39.4609 43.0312 39.2582 43.0312 39.0469V31.0781C43.0312 30.4441 43.2831 29.836 43.7314 29.3877C44.1798 28.9394 44.7878 28.6875 45.4219 28.6875C46.0559 28.6875 46.664 28.9394 47.1123 29.3877C47.5606 29.836 47.8125 30.4441 47.8125 31.0781V39.0469C47.8125 40.5263 47.2248 41.9451 46.1787 42.9912C45.1326 44.0373 43.7138 44.625 42.2344 44.625H8.76562Z" fill="#AAAAAA"/>
<path d="M37.5487 15.0448C37.7706 15.2667 37.9466 15.5301 38.0666 15.8199C38.1867 16.1098 38.2485 16.4205 38.2485 16.7342C38.2485 17.048 38.1867 17.3586 38.0666 17.6485C37.9466 17.9384 37.7706 18.2017 37.5487 18.4236C37.3269 18.6455 37.0635 18.8214 36.7736 18.9415C36.4838 19.0616 36.1731 19.1234 35.8594 19.1234C35.5456 19.1234 35.2349 19.0616 34.9451 18.9415C34.6552 18.8214 34.3918 18.6455 34.17 18.4236L27.8906 12.1474V30.2811C27.8906 30.9151 27.6387 31.5232 27.1904 31.9715C26.7421 32.4199 26.134 32.6717 25.5 32.6717C24.8659 32.6717 24.2579 32.4199 23.8095 31.9715C23.3612 31.5232 23.1094 30.9151 23.1094 30.2811V12.1474L16.83 18.4236C16.6081 18.6455 16.3447 18.8214 16.0549 18.9415C15.765 19.0616 15.4543 19.1234 15.1406 19.1234C14.8269 19.1234 14.5162 19.0616 14.2263 18.9415C13.9365 18.8214 13.6731 18.6455 13.4512 18.4236C13.2294 18.2017 13.0534 17.9384 12.9333 17.6485C12.8133 17.3586 12.7515 17.048 12.7515 16.7342C12.7515 16.4205 12.8133 16.1098 12.9333 15.8199C13.0534 15.5301 13.2294 15.2667 13.4512 15.0448L23.8106 4.68547C24.2588 4.23779 24.8665 3.98633 25.5 3.98633C26.1335 3.98633 26.7411 4.23779 27.1894 4.68547L37.5487 15.0448Z" fill="#AAAAAA"/>
</svg>
